<svg width="95" height="95" viewBox="0 0 95 95" fill="none" xmlns="http://www.w3.org/2000/svg">
<g opacity="0.9" filter="url(#filter0_d_532_1976)">
<path d="M87.5246 72.574C87.5246 79.6964 81.6964 85.5246 74.574 85.5246H20.9506C13.8282 85.5246 8 79.6964 8 72.574V18.9506C8 11.8282 13.8282 6 20.9506 6H74.574C81.6964 6 87.5246 11.8282 87.5246 18.9506V72.574Z" fill="white"/>
<path d="M61.8643 78.5006H33.6568C23.3818 78.5006 15.019 70.142 15.019 59.8629V31.6553C15.019 21.3803 23.3776 13.0176 33.6568 13.0176H61.8643C72.1393 13.0176 80.5021 21.3761 80.5021 31.6553V59.8629C80.5021 70.1379 72.1393 78.5006 61.8643 78.5006ZM33.6609 18.6342C26.4804 18.6342 20.6357 24.4748 20.6357 31.6595V59.867C20.6357 67.0475 26.4763 72.8923 33.6609 72.8923H61.8685C69.049 72.8923 74.8937 67.0516 74.8937 59.867V31.6595C74.8937 24.479 69.0531 18.6342 61.8685 18.6342H33.6609Z" fill="#323232"/>
<path d="M47.7645 62.527C38.5182 62.527 30.9976 55.0063 30.9976 45.7601C30.9976 36.5138 38.5182 28.9932 47.7645 28.9932C57.0107 28.9932 64.5314 36.5138 64.5314 45.7601C64.5272 55.0063 57.0066 62.527 47.7645 62.527ZM47.7645 34.6098C41.6127 34.6098 36.61 39.6125 36.61 45.7642C36.61 51.916 41.6127 56.9187 47.7645 56.9187C53.9162 56.9187 58.9189 51.916 58.9189 45.7642C58.9189 39.6125 53.912 34.6098 47.7645 34.6098Z" fill="#323232"/>
<path d="M69.277 28.0352C69.277 30.2628 67.4725 32.0631 65.2491 32.0631C63.0215 32.0631 61.2212 30.2586 61.2212 28.0352C61.2212 25.8076 63.0257 24.0073 65.2491 24.0073C67.4725 24.0073 69.277 25.8118 69.277 28.0352Z" fill="#323232"/>
</g>
<defs>
<filter id="filter0_d_532_1976" x="0.8" y="0.8" width="93.9244" height="93.9244" filterUnits="userSpaceOnUse" color-interpolation-filters="sRGB">
<feFlood flood-opacity="0" result="BackgroundImageFix"/>
<feColorMatrix in="SourceAlpha" type="matrix" values="0 0 0 0 0 0 0 0 0 0 0 0 0 0 0 0 0 0 127 0" result="hardAlpha"/>
<feOffset dy="2"/>
<feGaussianBlur stdDeviation="3.6"/>
<feComposite in2="hardAlpha" operator="out"/>
<feColorMatrix type="matrix" values="0 0 0 0 0 0 0 0 0 0 0 0 0 0 0 0 0 0 0.31 0"/>
<feBlend mode="normal" in2="BackgroundImageFix" result="effect1_dropShadow_532_1976"/>
<feBlend mode="normal" in="SourceGraphic" in2="effect1_dropShadow_532_1976" result="shape"/>
</filter>
</defs>
</svg>
