<svg width="14" height="18" viewBox="0 0 14 18" fill="none" xmlns="http://www.w3.org/2000/svg">
<path d="M1.64252 5.57282C1.40377 4.00032 2.51252 2.58782 4.20627 2.07032C4.50684 1.97842 4.83114 2.00458 5.11309 2.14347C5.39504 2.28235 5.61344 2.52351 5.72377 2.81782L6.26752 4.26782C6.35505 4.50108 6.37088 4.75519 6.31297 4.99751C6.25506 5.23984 6.12606 5.45933 5.94252 5.62782L4.32502 7.10907C4.24529 7.18223 4.18588 7.27481 4.15258 7.37777C4.11928 7.48074 4.11323 7.59057 4.13502 7.69657L4.15002 7.76157L4.18877 7.92407C4.38993 8.71362 4.69643 9.47252 5.10002 10.1803C5.53966 10.9324 6.08525 11.6174 6.72002 12.2141L6.77002 12.2591C6.85077 12.3307 6.94871 12.3803 7.0543 12.4028C7.15989 12.4254 7.26953 12.4202 7.37252 12.3878L9.46377 11.7291C9.70143 11.6544 9.95597 11.6525 10.1947 11.7236C10.4335 11.7946 10.6456 11.9354 10.8038 12.1278L11.7938 13.3291C12.2063 13.8291 12.1563 14.5641 11.6825 15.0053C10.3863 16.2141 8.60377 16.4616 7.36377 15.4653C5.8438 14.2393 4.56246 12.7439 3.58377 11.0541C2.59713 9.36549 1.93935 7.50585 1.64252 5.57282ZM5.44627 7.77907L6.78627 6.54907C7.15356 6.21224 7.41181 5.77332 7.52785 5.28866C7.64389 4.804 7.61244 4.29572 7.43752 3.82907L6.89502 2.37907C6.67295 1.78688 6.23344 1.30164 5.66604 1.02224C5.09864 0.742839 4.44606 0.690295 3.84127 0.875317C1.73752 1.51907 0.0487689 3.40532 0.406269 5.76157C0.656269 7.40657 1.23252 9.49907 2.50377 11.6841C3.55966 13.5062 4.94184 15.1185 6.58127 16.4403C8.44127 17.9341 10.9238 17.4241 12.5363 15.9216C12.9977 15.492 13.2777 14.9025 13.3193 14.2734C13.3609 13.6444 13.1608 13.0232 12.76 12.5366L11.77 11.3341C11.4533 10.9497 11.029 10.6686 10.5515 10.527C10.074 10.3853 9.56511 10.3895 9.09002 10.5391L7.35377 11.0853C6.90548 10.6231 6.51281 10.11 6.18377 9.55657C5.86592 8.99702 5.61822 8.40044 5.44627 7.78032V7.77907Z" fill="white"/>
</svg>
