<svg width="100" height="100" viewBox="0 0 100 100" fill="none" xmlns="http://www.w3.org/2000/svg">
<g filter="url(#filter0_d_532_1990)">
<path d="M22.9506 85.5246C15.8282 85.5246 10 79.6964 10 72.574V18.9506C10 11.8282 15.8282 6 22.9506 6H76.574C83.6964 6 89.5246 11.8282 89.5246 18.9506V72.574C89.5246 79.6964 83.6964 85.5246 76.574 85.5246H22.9506Z" fill="url(#paint0_linear_532_1990)"/>
<path fill-rule="evenodd" clip-rule="evenodd" d="M77.6815 45.0426C77.6815 60.0631 65.4071 72.2421 50.2704 72.2421C45.4627 72.2421 40.9453 71.0143 37.017 68.8572L21.8389 73.6815L26.7876 59.0883C24.2904 54.9899 22.8552 50.1822 22.8552 45.0426C22.8552 30.0179 35.1296 17.8389 50.2704 17.8389C65.4113 17.8389 77.6815 30.0179 77.6815 45.0426ZM50.2704 22.1737C37.5604 22.1737 27.2232 32.4321 27.2232 45.0426C27.2232 50.0453 28.8534 54.6788 31.612 58.4536L28.7331 66.9449L37.5895 64.1325C41.2274 66.5177 45.5871 67.9114 50.2704 67.9114C62.9763 67.9114 73.3177 57.653 73.3177 45.0426C73.3177 32.4321 62.9763 22.1737 50.2704 22.1737ZM64.1129 51.3105C63.9428 51.0325 63.4948 50.8666 62.8269 50.5306C62.1549 50.1987 58.8489 48.5851 58.2349 48.3611C57.621 48.1413 57.1688 48.0293 56.725 48.693C56.277 49.3608 54.9869 50.8625 54.597 51.3063C54.207 51.7543 53.8171 51.8082 53.141 51.4722C52.469 51.1404 50.2995 50.4311 47.7359 48.1662C45.7406 46.3949 44.3925 44.2171 43.9984 43.5492C43.6085 42.8814 43.9611 42.5205 44.2929 42.1886C44.5957 41.89 44.9649 41.4088 45.3009 41.023C45.6369 40.6331 45.7489 40.351 45.9729 39.9071C46.1969 39.4633 46.0849 39.0734 45.9148 38.7415C45.7489 38.4097 44.4049 35.1284 43.8408 33.7927C43.2849 32.4612 42.7249 32.5109 42.3308 32.5109C41.9409 32.5109 41.215 32.6271 41.215 32.6271C41.215 32.6271 39.8668 32.793 39.2529 33.4609C38.639 34.1287 36.9009 35.7424 36.9009 39.0194C36.9009 42.3006 39.3068 45.474 39.6428 45.9137C39.9788 46.3617 44.2888 53.314 51.1208 55.9813C57.9528 58.6486 57.9528 57.7609 59.1848 57.6489C60.4169 57.541 63.1588 56.0352 63.7188 54.4797C64.2788 52.9199 64.2788 51.5842 64.1129 51.3105Z" fill="white"/>
</g>
<defs>
<filter id="filter0_d_532_1990" x="0" y="0" width="99.5245" height="99.5244" filterUnits="userSpaceOnUse" color-interpolation-filters="sRGB">
<feFlood flood-opacity="0" result="BackgroundImageFix"/>
<feColorMatrix in="SourceAlpha" type="matrix" values="0 0 0 0 0 0 0 0 0 0 0 0 0 0 0 0 0 0 127 0" result="hardAlpha"/>
<feOffset dy="4"/>
<feGaussianBlur stdDeviation="5"/>
<feComposite in2="hardAlpha" operator="out"/>
<feColorMatrix type="matrix" values="0 0 0 0 0 0 0 0 0 0 0 0 0 0 0 0 0 0 0.4 0"/>
<feBlend mode="normal" in2="BackgroundImageFix" result="effect1_dropShadow_532_1990"/>
<feBlend mode="normal" in="SourceGraphic" in2="effect1_dropShadow_532_1990" result="shape"/>
</filter>
<linearGradient id="paint0_linear_532_1990" x1="49.762" y1="5.99751" x2="49.762" y2="85.5261" gradientUnits="userSpaceOnUse">
<stop stop-color="#00C13E"/>
<stop offset="1" stop-color="#008530"/>
</linearGradient>
</defs>
</svg>
