<svg width="95" height="95" viewBox="0 0 95 95" fill="none" xmlns="http://www.w3.org/2000/svg">
<g opacity="0.9" filter="url(#filter0_d_532_1973)">
<path d="M87.5246 72.574C87.5246 79.6964 81.6964 85.5246 74.574 85.5246H20.9506C13.8282 85.5246 8 79.6964 8 72.574V18.9506C8 11.8282 13.8282 6 20.9506 6H74.574C81.6964 6 87.5246 11.8282 87.5246 18.9506V72.574Z" fill="white"/>
<path fill-rule="evenodd" clip-rule="evenodd" d="M75.6854 45.0421C75.6854 60.0626 63.411 72.2416 48.2743 72.2416C43.4666 72.2416 38.9492 71.0138 35.0209 68.8567L19.8428 73.6811L24.7915 59.0878C22.2943 54.9894 20.8591 50.1817 20.8591 45.0421C20.8591 30.0174 33.1335 17.8384 48.2743 17.8384C63.411 17.8384 75.6854 30.0174 75.6854 45.0421ZM48.2702 22.1732C35.5602 22.1732 25.223 32.4316 25.223 45.0421C25.223 50.0448 26.8532 54.6783 29.6117 58.4531L26.7329 66.9444L35.5892 64.132C39.2272 66.5172 43.5869 67.9109 48.2702 67.9109C60.976 67.9109 71.3174 57.6525 71.3174 45.0421C71.3174 32.4316 60.976 22.1732 48.2702 22.1732ZM62.1126 51.31C61.9426 51.032 61.4945 50.8661 60.8267 50.5301C60.1547 50.1983 56.8486 48.5846 56.2347 48.3606C55.6208 48.1408 55.1686 48.0288 54.7247 48.6925C54.2767 49.3603 52.9867 50.862 52.5967 51.3058C52.2068 51.7538 51.8169 51.8077 51.1407 51.4717C50.4687 51.1399 48.2992 50.4306 45.7357 48.1657C43.7404 46.3944 42.3922 44.2166 41.9982 43.5487C41.6082 42.8809 41.9608 42.52 42.2927 42.1881C42.5955 41.8895 42.9647 41.4083 43.3007 41.0225C43.6367 40.6326 43.7487 40.3505 43.9727 39.9067C44.1967 39.4628 44.0847 39.0729 43.9146 38.741C43.7487 38.4092 42.4047 35.128 41.8405 33.7922C41.2847 32.4607 40.7247 32.5105 40.3306 32.5105C39.9407 32.5105 39.2147 32.6266 39.2147 32.6266C39.2147 32.6266 37.8666 32.7925 37.2526 33.4604C36.6387 34.1282 34.9006 35.7419 34.9006 39.0189C34.9006 42.3001 37.3066 45.4735 37.6426 45.9132C37.9786 46.3612 42.2885 53.3135 49.1206 55.9808C55.9526 58.6481 55.9526 57.7604 57.1846 57.6484C58.4166 57.5405 61.1585 56.0347 61.7185 54.4792C62.2786 52.9195 62.2786 51.5838 62.1126 51.31Z" fill="#323232"/>
</g>
<defs>
<filter id="filter0_d_532_1973" x="0.8" y="0.8" width="93.9244" height="93.9244" filterUnits="userSpaceOnUse" color-interpolation-filters="sRGB">
<feFlood flood-opacity="0" result="BackgroundImageFix"/>
<feColorMatrix in="SourceAlpha" type="matrix" values="0 0 0 0 0 0 0 0 0 0 0 0 0 0 0 0 0 0 127 0" result="hardAlpha"/>
<feOffset dy="2"/>
<feGaussianBlur stdDeviation="3.6"/>
<feComposite in2="hardAlpha" operator="out"/>
<feColorMatrix type="matrix" values="0 0 0 0 0 0 0 0 0 0 0 0 0 0 0 0 0 0 0.31 0"/>
<feBlend mode="normal" in2="BackgroundImageFix" result="effect1_dropShadow_532_1973"/>
<feBlend mode="normal" in="SourceGraphic" in2="effect1_dropShadow_532_1973" result="shape"/>
</filter>
</defs>
</svg>
